<?xml version="1.0" encoding="UTF-8"?>
<!DOCTYPE svg PUBLIC "-//W3C//DTD SVG 1.1//EN" "http://www.w3.org/Graphics/SVG/1.1/DTD/svg11.dtd">
<svg xmlns="http://www.w3.org/2000/svg" version="1.1" width="188px" height="188px" style="shape-rendering:geometricPrecision; text-rendering:geometricPrecision; image-rendering:optimizeQuality; fill-rule:evenodd; clip-rule:evenodd" xmlns:xlink="http://www.w3.org/1999/xlink">
<g><path style="opacity:1" fill="#f9faf9" d="M 93.5,39.5 C 94.8333,40.1667 94.8333,40.1667 93.5,39.5 Z"/></g>
<g><path style="opacity:1" fill="#889001" d="M 61.5,41.5 C 70.3238,40.3427 79.3238,40.176 88.5,41C 79.5062,41.4998 70.5062,41.6664 61.5,41.5 Z"/></g>
<g><path style="opacity:1" fill="#a19b41" d="M 98.5,41.5 C 106.656,40.3434 114.99,40.1768 123.5,41C 115.173,41.4997 106.84,41.6664 98.5,41.5 Z"/></g>
<g><path style="opacity:1" fill="#b69204" d="M 63.5,42.5 C 72.5645,41.8636 81.2312,42.5302 89.5,44.5C 89.1667,44.5 88.8333,44.5 88.5,44.5C 88.1667,44.5 87.8333,44.5 87.5,44.5C 80.0182,43.508 72.3516,43.1746 64.5,43.5C 63.8333,43.5 63.5,43.1667 63.5,42.5 Z"/></g>
<g><path style="opacity:1" fill="#e09f2c" d="M 99.5,42.5 C 107.833,42.5 116.167,42.5 124.5,42.5C 124.5,42.8333 124.5,43.1667 124.5,43.5C 123.5,43.5 122.5,43.5 121.5,43.5C 114.313,43.1755 107.313,43.5088 100.5,44.5C 99.6618,44.1583 99.3284,43.4916 99.5,42.5 Z"/></g>
<g><path style="opacity:1" fill="#5fea86" d="M 64.5,43.5 C 72.3516,43.1746 80.0182,43.508 87.5,44.5C 84.0393,45.5512 81.3727,47.5512 79.5,50.5C 79.6716,49.5084 79.3382,48.8417 78.5,48.5C 73.6069,49.262 69.2736,48.262 65.5,45.5C 65.1667,44.8333 64.8333,44.1667 64.5,43.5 Z"/></g>
<g><path style="opacity:1" fill="#98aa2c" d="M 124.5,42.5 C 126.664,41.8817 128.33,42.8817 129.5,45.5C 129.376,46.1067 129.043,46.44 128.5,46.5C 128.167,45.1667 127.833,45.1667 127.5,46.5C 126.609,45.8902 125.609,45.5569 124.5,45.5C 124.5,44.8333 124.5,44.1667 124.5,43.5C 125.833,43.1667 125.833,42.8333 124.5,42.5 Z"/></g>
<g><path style="opacity:1" fill="#5ae35c" d="M 121.5,43.5 C 121.5,43.8333 121.5,44.1667 121.5,44.5C 117.991,44.4576 114.658,45.1242 111.5,46.5C 111.5,47.5 111.5,48.5 111.5,49.5C 109.5,48.8333 107.5,48.1667 105.5,47.5C 103.833,46.8333 102.167,46.1667 100.5,45.5C 100.5,45.1667 100.5,44.8333 100.5,44.5C 107.313,43.5088 114.313,43.1755 121.5,43.5 Z"/></g>
<g><path style="opacity:1" fill="#03622e" d="M 121.5,44.5 C 121.167,45.1667 120.833,45.8333 120.5,46.5C 119.833,46.5 119.5,46.8333 119.5,47.5C 118.833,47.5 118.5,47.8333 118.5,48.5C 117.662,48.8417 117.328,49.5084 117.5,50.5C 116.833,50.5 116.5,50.8333 116.5,51.5C 115.5,51.8333 114.833,52.5 114.5,53.5C 113.026,52.5637 112.026,51.2303 111.5,49.5C 111.5,48.5 111.5,47.5 111.5,46.5C 114.658,45.1242 117.991,44.4576 121.5,44.5 Z"/></g>
<g><path style="opacity:1" fill="#74601e" d="M 132.5,51.5 C 132.5,50.8333 132.167,50.5 131.5,50.5C 131.747,48.0248 132.413,48.0248 133.5,50.5C 133.376,51.1067 133.043,51.44 132.5,51.5 Z"/></g>
<g><path style="opacity:1" fill="#258533" d="M 124.5,45.5 C 125.609,45.5569 126.609,45.8902 127.5,46.5C 127.833,46.5 128.167,46.5 128.5,46.5C 129.6,47.6049 130.267,48.9382 130.5,50.5C 131.795,52.3717 131.628,54.0383 130,55.5C 128.729,54.1175 127.229,53.1175 125.5,52.5C 124.631,50.283 124.298,47.9496 124.5,45.5 Z"/></g>
<g><path style="opacity:1" fill="#101a0d" d="M 93.5,40.5 C 93.5,40.8333 93.5,41.1667 93.5,41.5C 93.5,42.5 93.5,43.5 93.5,44.5C 91.7329,46.7916 90.7329,49.4582 90.5,52.5C 89.5052,63.6544 89.1719,74.9877 89.5,86.5C 89.5,94.5 89.5,102.5 89.5,110.5C 88.6205,113.262 87.4538,115.929 86,118.5C 85.3292,119.252 84.4959,119.586 83.5,119.5C 83.5,119.167 83.5,118.833 83.5,118.5C 84.1667,118.5 84.5,118.167 84.5,117.5C 85.1667,117.5 85.5,117.167 85.5,116.5C 85.5,116.167 85.5,115.833 85.5,115.5C 86.1667,115.5 86.5,115.167 86.5,114.5C 87.5349,98.976 87.5349,83.476 86.5,68C 86.9581,61.3939 87.9581,54.8939 89.5,48.5C 88.8728,47.5832 88.5394,46.5832 88.5,45.5C 89.1667,45.5 89.5,45.1667 89.5,44.5C 90.8333,43.1667 92.1667,41.8333 93.5,40.5 Z"/></g>
<g><path style="opacity:1" fill="#172519" d="M 65.5,45.5 C 69.2736,48.262 73.6069,49.262 78.5,48.5C 77.6851,49.8366 76.5185,50.8366 75,51.5C 74.5172,52.448 74.3505,53.448 74.5,54.5C 73.8359,56.9779 73.5025,59.6445 73.5,62.5C 73.5217,65.5902 74.1883,68.2568 75.5,70.5C 75.5,70.8333 75.5,71.1667 75.5,71.5C 74.209,71.2627 73.209,71.596 72.5,72.5C 72.1667,72.5 71.8333,72.5 71.5,72.5C 71.6716,71.5084 71.3382,70.8417 70.5,70.5C 70.8333,69.8333 71.1667,69.1667 71.5,68.5C 72.3382,68.1583 72.6716,67.4916 72.5,66.5C 72.5,65.8333 72.5,65.1667 72.5,64.5C 72.5,61.8333 72.5,59.1667 72.5,56.5C 72.6716,55.5084 72.3382,54.8417 71.5,54.5C 71.5,53.8333 71.1667,53.5 70.5,53.5C 67.7997,51.7656 65.7997,49.4323 64.5,46.5C 64.5,45.8333 64.8333,45.5 65.5,45.5 Z"/></g>
<g><path style="opacity:1" fill="#0f1d07" d="M 85.5,51.5 C 86.8333,53.5 86.8333,55.5 85.5,57.5C 85.5,57.1667 85.5,56.8333 85.5,56.5C 85.4431,55.391 85.1098,54.391 84.5,53.5C 85.3382,53.1583 85.6716,52.4916 85.5,51.5 Z"/></g>
<g><path style="opacity:1" fill="#92ec9e" d="M 105.5,47.5 C 107.5,48.1667 109.5,48.8333 111.5,49.5C 112.026,51.2303 113.026,52.5637 114.5,53.5C 114.932,54.7095 115.599,55.7095 116.5,56.5C 116.328,57.4916 116.662,58.1583 117.5,58.5C 117.5,59.1667 117.833,59.5 118.5,59.5C 118.328,60.4916 118.662,61.1583 119.5,61.5C 119.5,62.1667 119.5,62.8333 119.5,63.5C 119.649,64.552 119.483,65.552 119,66.5C 118.292,65.6195 117.458,64.9528 116.5,64.5C 112.608,59.0685 108.942,53.4018 105.5,47.5 Z"/></g>
<g><path style="opacity:1" fill="#69e25c" d="M 62.5,44.5 C 63.1667,45.1667 63.8333,45.8333 64.5,46.5C 65.7997,49.4323 67.7997,51.7656 70.5,53.5C 71.1667,53.5 71.5,53.8333 71.5,54.5C 71.3284,55.4916 71.6618,56.1583 72.5,56.5C 72.5,59.1667 72.5,61.8333 72.5,64.5C 71.8333,64.5 71.5,64.8333 71.5,65.5C 70.1667,65.5 68.8333,65.5 67.5,65.5C 67.5654,65.0618 67.3988,64.7284 67,64.5C 65.1448,66.9834 63.3115,66.9834 61.5,64.5C 68.5055,60.9109 69.0055,56.5776 63,51.5C 62.2917,52.3805 61.4584,53.0472 60.5,53.5C 62.123,50.7847 62.7896,47.7847 62.5,44.5 Z"/></g>
<g><path style="opacity:1" fill="#17e259" d="M 93.5,44.5 C 93.5,50.8333 93.5,57.1667 93.5,63.5C 92.8501,63.8039 92.1835,64.1373 91.5,64.5C 90.5091,60.5546 90.1758,56.5546 90.5,52.5C 90.7329,49.4582 91.7329,46.7916 93.5,44.5 Z"/></g>
<g><path style="opacity:1" fill="#1e2a1b" d="M 121.5,43.5 C 122.5,43.5 123.5,43.5 124.5,43.5C 124.5,44.1667 124.5,44.8333 124.5,45.5C 122.852,47.4293 121.185,49.4293 119.5,51.5C 123.942,58.7375 128.609,65.7375 133.5,72.5C 134.094,74.8553 135.094,77.022 136.5,79C 135.711,81.4284 134.377,81.9284 132.5,80.5C 132.558,77.9395 131.391,75.6062 129,73.5C 128.617,74.056 128.117,74.3893 127.5,74.5C 127.672,73.5084 127.338,72.8417 126.5,72.5C 128.031,71.0755 127.698,70.4088 125.5,70.5C 125.5,69.8333 125.167,69.5 124.5,69.5C 124.672,68.5084 124.338,67.8417 123.5,67.5C 123.5,66.8333 123.167,66.5 122.5,66.5C 122.672,65.5084 122.338,64.8417 121.5,64.5C 121.5,63.8333 121.167,63.5 120.5,63.5C 120.672,62.5084 120.338,61.8417 119.5,61.5C 119.672,60.5084 119.338,59.8417 118.5,59.5C 117.833,59.5 117.5,59.1667 117.5,58.5C 117.672,57.5084 117.338,56.8417 116.5,56.5C 117.562,54.7659 117.562,53.0992 116.5,51.5C 117.167,51.5 117.5,51.1667 117.5,50.5C 118.338,50.1583 118.672,49.4916 118.5,48.5C 119.167,48.5 119.5,48.1667 119.5,47.5C 120.167,47.5 120.5,47.1667 120.5,46.5C 120.833,45.8333 121.167,45.1667 121.5,44.5C 121.5,44.1667 121.5,43.8333 121.5,43.5 Z"/></g>
<g><path style="opacity:1" fill="#72f4d3" d="M 78.5,48.5 C 79.3382,48.8417 79.6716,49.5084 79.5,50.5C 79.7373,51.791 79.404,52.791 78.5,53.5C 77.5894,55.751 76.256,57.751 74.5,59.5C 74.5,57.8333 74.5,56.1667 74.5,54.5C 74.3505,53.448 74.5172,52.448 75,51.5C 76.5185,50.8366 77.6851,49.8366 78.5,48.5 Z"/></g>
<g><path style="opacity:1" fill="#13520f" d="M 87.5,44.5 C 87.8333,44.5 88.1667,44.5 88.5,44.5C 88.5,44.8333 88.5,45.1667 88.5,45.5C 86.9925,47.1815 85.9925,49.1815 85.5,51.5C 84.6618,51.8417 84.3284,52.5084 84.5,53.5C 83.0937,53.9731 82.427,54.9731 82.5,56.5C 81.6618,56.8417 81.3284,57.5084 81.5,58.5C 80.6618,58.8417 80.3284,59.5084 80.5,60.5C 79.6618,60.8417 79.3284,61.5084 79.5,62.5C 78.6618,62.8417 78.3284,63.5084 78.5,64.5C 77.6618,64.8417 77.3284,65.5084 77.5,66.5C 76.6618,66.8417 76.3284,67.5084 76.5,68.5C 75.6618,68.8417 75.3284,69.5084 75.5,70.5C 74.1883,68.2568 73.5217,65.5902 73.5,62.5C 73.5025,59.6445 73.8359,56.9779 74.5,54.5C 74.5,56.1667 74.5,57.8333 74.5,59.5C 74.3433,60.8734 74.51,62.2068 75,63.5C 76.5107,60.2039 77.6774,56.8706 78.5,53.5C 79.404,52.791 79.7373,51.791 79.5,50.5C 81.3727,47.5512 84.0393,45.5512 87.5,44.5 Z"/></g>
<g><path style="opacity:1" fill="#424322" d="M 63.5,42.5 C 63.5,43.1667 63.8333,43.5 64.5,43.5C 64.8333,44.1667 65.1667,44.8333 65.5,45.5C 64.8333,45.5 64.5,45.8333 64.5,46.5C 63.8333,45.8333 63.1667,45.1667 62.5,44.5C 59.5039,46.5323 56.8372,49.5323 54.5,53.5C 49.8632,59.142 45.1966,64.8086 40.5,70.5C 39.3951,71.6005 38.0618,72.2671 36.5,72.5C 44.372,62.6056 52.372,52.7722 60.5,43C 61.448,42.5172 62.448,42.3505 63.5,42.5 Z"/></g>
<g><path style="opacity:1" fill="#7af6c1" d="M 62.5,44.5 C 62.7896,47.7847 62.123,50.7847 60.5,53.5C 60.1667,54.1667 59.8333,54.8333 59.5,55.5C 57.5454,56.3235 55.5454,56.4901 53.5,56C 54.2524,55.3292 54.5858,54.4959 54.5,53.5C 56.8372,49.5323 59.5039,46.5323 62.5,44.5 Z"/></g>
<g><path style="opacity:1" fill="#0c1f16" d="M 61.5,64.5 C 62.6005,63.3951 63.2671,62.0618 63.5,60.5C 63.1667,57.8333 62.8333,57.8333 62.5,60.5C 61.8333,60.5 61.5,60.8333 61.5,61.5C 60.8333,61.5 60.5,61.8333 60.5,62.5C 60.5,62.8333 60.5,63.1667 60.5,63.5C 59.8333,63.5 59.5,63.8333 59.5,64.5C 58.8333,64.5 58.5,64.8333 58.5,65.5C 58.1667,65.5 57.8333,65.5 57.5,65.5C 55.4884,66.0138 53.4884,66.1805 51.5,66C 54.3826,62.6235 57.0493,59.1235 59.5,55.5C 59.8333,54.8333 60.1667,54.1667 60.5,53.5C 61.4584,53.0472 62.2917,52.3805 63,51.5C 69.0055,56.5776 68.5055,60.9109 61.5,64.5 Z"/></g>
<g><path style="opacity:1" fill="#0c6a04" d="M 100.5,45.5 C 102.167,46.1667 103.833,46.8333 105.5,47.5C 108.942,53.4018 112.608,59.0685 116.5,64.5C 117.167,66.1667 117.833,67.8333 118.5,69.5C 118.167,70.5 117.5,71.1667 116.5,71.5C 111.167,62.8333 105.833,54.1667 100.5,45.5 Z"/></g>
<g><path style="opacity:1" fill="#19f161" d="M 97.5,50.5 C 97.5,51.1667 97.8333,51.5 98.5,51.5C 98.5,52.5 98.5,53.5 98.5,54.5C 99.1429,58.4006 98.1429,61.734 95.5,64.5C 94.3391,60.2047 94.1725,55.8713 95,51.5C 95.6708,50.7476 96.5041,50.4142 97.5,50.5 Z"/></g>
<g><path style="opacity:1" fill="#081109" d="M 100.5,58.5 C 100.833,58.5 101.167,58.5 101.5,58.5C 101.5,59.1667 101.5,59.8333 101.5,60.5C 101.168,72.8513 101.501,85.1847 102.5,97.5C 103.182,96.7573 103.849,96.0906 104.5,95.5C 104.833,98.1667 105.167,98.1667 105.5,95.5C 106.167,95.5 106.5,95.1667 106.5,94.5C 106.5,93.8333 106.5,93.1667 106.5,92.5C 108.345,91.0045 108.678,89.3379 107.5,87.5C 107.5,86.5 107.5,85.5 107.5,84.5C 107.435,84.0618 107.601,83.7284 108,83.5C 109.559,85.2166 110.392,87.2166 110.5,89.5C 107.471,95.5577 104.471,101.558 101.5,107.5C 100.517,111.298 100.183,115.298 100.5,119.5C 100.5,120.167 100.167,120.5 99.5,120.5C 99.1667,120.5 98.8333,120.5 98.5,120.5C 98.5,120.167 98.5,119.833 98.5,119.5C 99.8333,118.833 99.8333,118.167 98.5,117.5C 98.5,114.833 98.5,112.167 98.5,109.5C 98.5,109.167 98.5,108.833 98.5,108.5C 99.3913,106.709 100.391,104.876 101.5,103C 100.509,88.245 100.176,73.4116 100.5,58.5 Z M 107.5,87.5 C 108.678,89.3379 108.345,91.0045 106.5,92.5C 106.5,91.5 106.5,90.5 106.5,89.5C 107.338,89.1583 107.672,88.4916 107.5,87.5 Z"/></g>
<g><path style="opacity:1" fill="#69ea5e" d="M 124.5,45.5 C 124.298,47.9496 124.631,50.283 125.5,52.5C 125.75,54.674 126.75,56.3406 128.5,57.5C 130.432,60.3661 132.099,63.3661 133.5,66.5C 134.38,68.3888 134.38,70.3888 133.5,72.5C 128.609,65.7375 123.942,58.7375 119.5,51.5C 121.185,49.4293 122.852,47.4293 124.5,45.5 Z"/></g>
<g><path style="opacity:1" fill="#69cc5c" d="M 78.5,53.5 C 77.6774,56.8706 76.5107,60.2039 75,63.5C 74.51,62.2068 74.3433,60.8734 74.5,59.5C 76.256,57.751 77.5894,55.751 78.5,53.5 Z"/></g>
<g><path style="opacity:1" fill="#61b248" d="M 130.5,50.5 C 130.833,50.5 131.167,50.5 131.5,50.5C 132.167,50.5 132.5,50.8333 132.5,51.5C 133.542,53.7914 135.042,54.7914 137,54.5C 136.747,57.3574 138.081,59.6907 141,61.5C 141.667,60.1667 142.333,60.1667 143,61.5C 142.747,64.3574 144.081,66.6907 147,68.5C 147.667,67.1667 148.333,67.1667 149,68.5C 149.692,69.4368 149.525,70.1034 148.5,70.5C 148.167,69.1667 147.833,69.1667 147.5,70.5C 145.203,68.7059 143.037,66.7059 141,64.5C 140.5,65 140,65.5 139.5,66C 141.141,67.129 142.141,68.629 142.5,70.5C 137.786,66.1003 133.286,61.4336 129,56.5C 128.601,56.7284 128.435,57.0618 128.5,57.5C 126.75,56.3406 125.75,54.674 125.5,52.5C 127.229,53.1175 128.729,54.1175 130,55.5C 131.628,54.0383 131.795,52.3717 130.5,50.5 Z"/></g>
<g><path style="opacity:1" fill="#61cc77" d="M 54.5,53.5 C 54.5858,54.4959 54.2524,55.3292 53.5,56C 55.5454,56.4901 57.5454,56.3235 59.5,55.5C 57.0493,59.1235 54.3826,62.6235 51.5,66C 53.4884,66.1805 55.4884,66.0138 57.5,65.5C 58.0906,66.1515 58.7573,66.8182 59.5,67.5C 58,67.8333 56.5,68.1667 55,68.5C 53.0194,68.3708 51.3528,67.7042 50,66.5C 49.4867,67.5266 48.9867,68.5266 48.5,69.5C 47.5,70.8333 46.5,72.1667 45.5,73.5C 44.8826,73.6107 44.3826,73.944 44,74.5C 43.3333,73.1667 42.6667,71.8333 42,70.5C 41.6174,71.056 41.1174,71.3893 40.5,71.5C 40.5,71.1667 40.5,70.8333 40.5,70.5C 45.1966,64.8086 49.8632,59.142 54.5,53.5 Z"/></g>
<g><path style="opacity:1" fill="#136009" d="M 67.5,65.5 C 68.8333,65.5 70.1667,65.5 71.5,65.5C 71.5,65.8333 71.5,66.1667 71.5,66.5C 70.8333,66.5 70.5,66.8333 70.5,67.5C 69.5,67.8333 68.8333,68.5 68.5,69.5C 67.5266,69.0133 66.5266,68.5133 65.5,68C 66.3805,67.2917 67.0472,66.4584 67.5,65.5 Z"/></g>
<g><path style="opacity:1" fill="#5bea00" d="M 71.5,66.5 C 71.8333,66.5 72.1667,66.5 72.5,66.5C 72.6716,67.4916 72.3382,68.1583 71.5,68.5C 70.8333,68.5 70.5,68.1667 70.5,67.5C 71.1667,67.5 71.5,67.1667 71.5,66.5 Z"/></g>
<g><path style="opacity:1" fill="#a5e486" d="M 85.5,56.5 C 85.5,56.8333 85.5,57.1667 85.5,57.5C 86.0671,59.698 86.0671,62.0314 85.5,64.5C 83.6026,66.2688 82.436,68.6021 82,71.5C 80.6439,72.3802 79.1439,72.7135 77.5,72.5C 79.5665,68.0344 81.8998,63.701 84.5,59.5C 84.1373,58.8165 83.8039,58.1499 83.5,57.5C 84.1667,57.1667 84.8333,56.8333 85.5,56.5 Z"/></g>
<g><path style="opacity:1" fill="#a3df65" d="M 93.5,41.5 C 94.9779,42.4475 95.9779,43.7809 96.5,45.5C 96.2627,46.791 96.596,47.791 97.5,48.5C 97.5,49.1667 97.5,49.8333 97.5,50.5C 96.5041,50.4142 95.6708,50.7476 95,51.5C 94.1725,55.8713 94.3391,60.2047 95.5,64.5C 98.1429,61.734 99.1429,58.4006 98.5,54.5C 99.8333,67.5 99.8333,80.5 98.5,93.5C 98.6659,88.4889 98.4993,83.4889 98,78.5C 96.9887,79.3366 95.8221,79.67 94.5,79.5C 94.5,83.8333 94.5,88.1667 94.5,92.5C 94.5,96.1667 94.5,99.8333 94.5,103.5C 94.5,106.833 94.5,110.167 94.5,113.5C 94.1667,113.5 93.8333,113.5 93.5,113.5C 93.5,111.167 93.5,108.833 93.5,106.5C 93.5,99.5 93.5,92.5 93.5,85.5C 93.5,78.1667 93.5,70.8333 93.5,63.5C 93.5,57.1667 93.5,50.8333 93.5,44.5C 93.5,43.5 93.5,42.5 93.5,41.5 Z"/></g>
<g><path style="opacity:1" fill="#59b32d" d="M 85.5,64.5 C 85.5,66.8333 85.5,69.1667 85.5,71.5C 83.665,72.1223 82.4983,73.4556 82,75.5C 81.5007,80.4889 81.3341,85.4889 81.5,90.5C 81.6653,94.1817 81.4986,97.8484 81,101.5C 80.5005,95.1754 80.3338,88.8421 80.5,82.5C 80.5,79.8333 80.5,77.1667 80.5,74.5C 79.5,74.5 78.5,74.5 77.5,74.5C 77.5,73.8333 77.5,73.1667 77.5,72.5C 79.1439,72.7135 80.6439,72.3802 82,71.5C 82.436,68.6021 83.6026,66.2688 85.5,64.5 Z"/></g>
<g><path style="opacity:1" fill="#102f2c" d="M 48.5,69.5 C 53.1785,69.3342 57.8452,69.5008 62.5,70C 66.0511,71.6771 67.3845,74.5104 66.5,78.5C 64.3146,78.7036 62.3146,79.3702 60.5,80.5C 60.5,80.1667 60.5,79.8333 60.5,79.5C 61.8333,79.1667 61.8333,78.8333 60.5,78.5C 60.9175,77.7784 61.5842,77.2784 62.5,77C 59.3117,75.6842 55.9783,75.1842 52.5,75.5C 52.3893,74.8826 52.056,74.3826 51.5,74C 54.1667,73.6667 56.8333,73.3333 59.5,73C 55.6831,71.9766 52.1831,72.4766 49,74.5C 47.9887,73.6634 46.8221,73.33 45.5,73.5C 46.5,72.1667 47.5,70.8333 48.5,69.5 Z"/></g>
<g><path style="opacity:1" fill="#7d7833" d="M 40.5,70.5 C 40.5,70.8333 40.5,71.1667 40.5,71.5C 37.9587,75.2518 34.9587,78.5852 31.5,81.5C 32.3891,79.264 33.7224,77.264 35.5,75.5C 35.3764,74.8933 35.0431,74.56 34.5,74.5C 34.8333,73.5 35.5,72.8333 36.5,72.5C 38.0618,72.2671 39.3951,71.6005 40.5,70.5 Z"/></g>
<g><path style="opacity:1" fill="#1c2d1e" d="M 82.5,56.5 C 83.1667,56.5 83.5,56.8333 83.5,57.5C 83.8039,58.1499 84.1373,58.8165 84.5,59.5C 81.8998,63.701 79.5665,68.0344 77.5,72.5C 77.5,73.1667 77.5,73.8333 77.5,74.5C 77.5,77.1667 77.5,79.8333 77.5,82.5C 76.1014,92.8795 77.9347,102.546 83,111.5C 82.7087,106.856 82.7087,102.189 83,97.5C 83.0023,100.051 83.8356,102.051 85.5,103.5C 85.185,107.371 85.5184,111.038 86.5,114.5C 86.5,115.167 86.1667,115.5 85.5,115.5C 84.1667,115.833 84.1667,116.167 85.5,116.5C 85.5,117.167 85.1667,117.5 84.5,117.5C 83.8333,117.5 83.5,117.833 83.5,118.5C 83.1667,118.5 82.8333,118.5 82.5,118.5C 82.7373,117.209 82.404,116.209 81.5,115.5C 81.6716,114.508 81.3382,113.842 80.5,113.5C 80.6716,112.508 80.3382,111.842 79.5,111.5C 79.6716,110.508 79.3382,109.842 78.5,109.5C 78.5,109.167 78.5,108.833 78.5,108.5C 78.7709,106.62 78.1042,105.287 76.5,104.5C 76.1667,104.5 75.8333,104.5 75.5,104.5C 75.6716,103.508 75.3382,102.842 74.5,102.5C 75.4385,93.2051 75.4385,83.8718 74.5,74.5C 75.404,73.791 75.7373,72.791 75.5,71.5C 76.404,70.791 76.7373,69.791 76.5,68.5C 77.3382,68.1583 77.6716,67.4916 77.5,66.5C 78.3382,66.1583 78.6716,65.4916 78.5,64.5C 79.3382,64.1583 79.6716,63.4916 79.5,62.5C 80.3382,62.1583 80.6716,61.4916 80.5,60.5C 81.3382,60.1583 81.6716,59.4916 81.5,58.5C 82.3382,58.1583 82.6716,57.4916 82.5,56.5 Z"/></g>
<g><path style="opacity:1" fill="#1a341c" d="M 45.5,73.5 C 46.8221,73.33 47.9887,73.6634 49,74.5C 52.1831,72.4766 55.6831,71.9766 59.5,73C 56.8333,73.3333 54.1667,73.6667 51.5,74C 52.056,74.3826 52.3893,74.8826 52.5,75.5C 51.603,76.5981 50.7697,76.5981 50,75.5C 49.2828,76.0442 48.7828,76.7109 48.5,77.5C 47.8333,77.5 47.5,77.8333 47.5,78.5C 46.1667,78.8333 46.1667,79.1667 47.5,79.5C 47.5,79.8333 47.5,80.1667 47.5,80.5C 43.1818,81.2508 38.8484,82.4174 34.5,84C 44.5469,84.7835 54.5469,84.6168 64.5,83.5C 66.2633,82.0462 67.5967,82.3796 68.5,84.5C 69.5,86.8333 68.8333,87.5 66.5,86.5C 55.1667,86.5 43.8333,86.5 32.5,86.5C 31.1266,86.6567 29.7932,86.49 28.5,86C 30.1412,84.871 31.1412,83.371 31.5,81.5C 34.9587,78.5852 37.9587,75.2518 40.5,71.5C 41.1174,71.3893 41.6174,71.056 42,70.5C 42.6667,71.8333 43.3333,73.1667 44,74.5C 44.3826,73.944 44.8826,73.6107 45.5,73.5 Z"/></g>
<g><path style="opacity:1" fill="#82d852" d="M 62.5,60.5 C 62.8333,60.5 63.1667,60.5 63.5,60.5C 63.2671,62.0618 62.6005,63.3951 61.5,64.5C 63.3115,66.9834 65.1448,66.9834 67,64.5C 67.3988,64.7284 67.5654,65.0618 67.5,65.5C 67.0472,66.4584 66.3805,67.2917 65.5,68C 66.5266,68.5133 67.5266,69.0133 68.5,69.5C 69.1667,69.8333 69.8333,70.1667 70.5,70.5C 70.3284,71.4916 70.6618,72.1583 71.5,72.5C 71.6646,75.5184 71.498,78.5184 71,81.5C 70.6232,82.9423 69.7899,83.9423 68.5,84.5C 67.5967,82.3796 66.2633,82.0462 64.5,83.5C 65.1667,81.8333 65.8333,80.1667 66.5,78.5C 67.3845,74.5104 66.0511,71.6771 62.5,70C 57.8452,69.5008 53.1785,69.3342 48.5,69.5C 48.9867,68.5266 49.4867,67.5266 50,66.5C 51.3528,67.7042 53.0194,68.3708 55,68.5C 56.5,68.1667 58,67.8333 59.5,67.5C 58.7573,66.8182 58.0906,66.1515 57.5,65.5C 57.8333,65.5 58.1667,65.5 58.5,65.5C 59.1667,65.5 59.5,65.1667 59.5,64.5C 60.1667,64.5 60.5,64.1667 60.5,63.5C 60.5,63.1667 60.5,62.8333 60.5,62.5C 61.1667,62.5 61.5,62.1667 61.5,61.5C 62.1667,61.5 62.5,61.1667 62.5,60.5 Z"/></g>
<g><path style="opacity:1" fill="#a7e273" d="M 100.5,53.5 C 101.1,54.9002 102.1,55.9002 103.5,56.5C 103.5,57.1667 103.833,57.5 104.5,57.5C 104.5,57.8333 104.5,58.1667 104.5,58.5C 103.167,59.1667 103.167,59.8333 104.5,60.5C 104.932,61.7095 105.599,62.7095 106.5,63.5C 106.328,64.4916 106.662,65.1583 107.5,65.5C 109.332,69.8362 111.665,73.8362 114.5,77.5C 114.5,78.1667 114.833,78.5 115.5,78.5C 115.833,79.8333 116.167,81.1667 116.5,82.5C 115.624,82.3691 114.957,82.7025 114.5,83.5C 115.653,84.6868 115.653,85.6868 114.5,86.5C 112.345,82.8609 110.178,79.1943 108,75.5C 107.809,77.7078 107.309,79.7078 106.5,81.5C 106.784,75.3406 105.951,69.3406 104,63.5C 103.617,62.944 103.117,62.6107 102.5,62.5C 102.672,61.5084 102.338,60.8417 101.5,60.5C 101.5,59.8333 101.5,59.1667 101.5,58.5C 101.167,58.5 100.833,58.5 100.5,58.5C 100.5,56.8333 100.5,55.1667 100.5,53.5 Z"/></g>
<g><path style="opacity:1" fill="#0f160a" d="M 99.5,42.5 C 99.3284,43.4916 99.6618,44.1583 100.5,44.5C 100.5,44.8333 100.5,45.1667 100.5,45.5C 105.833,54.1667 111.167,62.8333 116.5,71.5C 118.655,75.1391 120.822,78.8057 123,82.5C 124.857,85.1998 127.357,86.8665 130.5,87.5C 132.265,88.4614 134.265,88.7947 136.5,88.5C 136.5,88.8333 136.5,89.1667 136.5,89.5C 136.167,89.5 135.833,89.5 135.5,89.5C 135.167,89.5 134.833,89.5 134.5,89.5C 132.5,89.5 130.5,89.5 128.5,89.5C 128.158,88.6618 127.492,88.3284 126.5,88.5C 126.158,87.6618 125.492,87.3284 124.5,87.5C 122.804,85.4752 121.137,83.4752 119.5,81.5C 118.89,79.5659 117.89,77.8993 116.5,76.5C 116.5,75.8333 116.167,75.5 115.5,75.5C 113.945,72.0604 112.112,68.7271 110,65.5C 109.23,64.4019 108.397,64.4019 107.5,65.5C 107.672,64.5084 107.338,63.8417 106.5,63.5C 107.982,60.6675 107.315,59.6675 104.5,60.5C 104.5,59.8333 104.5,59.1667 104.5,58.5C 105.833,58.1667 105.833,57.8333 104.5,57.5C 103.833,57.5 103.5,57.1667 103.5,56.5C 103.205,54.5767 102.372,52.9101 101,51.5C 100.536,52.0944 100.369,52.7611 100.5,53.5C 99.8333,52.8333 99.1667,52.1667 98.5,51.5C 98.7373,50.209 98.404,49.209 97.5,48.5C 97.7373,47.209 97.404,46.209 96.5,45.5C 96.5,44.5 96.5,43.5 96.5,42.5C 97.5,42.5 98.5,42.5 99.5,42.5 Z"/></g>
<g><path style="opacity:1" fill="#5dcd5f" d="M 119.5,63.5 C 119.833,63.5 120.167,63.5 120.5,63.5C 121.167,63.5 121.5,63.8333 121.5,64.5C 121.328,65.4916 121.662,66.1583 122.5,66.5C 123.167,66.5 123.5,66.8333 123.5,67.5C 123.328,68.4916 123.662,69.1583 124.5,69.5C 125.167,69.5 125.5,69.8333 125.5,70.5C 125.328,71.4916 125.662,72.1583 126.5,72.5C 126.328,73.4916 126.662,74.1583 127.5,74.5C 128.443,77.1092 130.11,79.1092 132.5,80.5C 134.377,81.9284 135.711,81.4284 136.5,79C 135.094,77.022 134.094,74.8553 133.5,72.5C 134.38,70.3888 134.38,68.3888 133.5,66.5C 138.565,71.2769 140.065,76.9435 138,83.5C 137.329,84.2524 136.496,84.5858 135.5,84.5C 132.436,84.8563 129.769,84.0229 127.5,82C 124.637,77.6521 121.637,73.4854 118.5,69.5C 117.833,67.8333 117.167,66.1667 116.5,64.5C 117.458,64.9528 118.292,65.6195 119,66.5C 119.483,65.552 119.649,64.552 119.5,63.5 Z M 125.5,70.5 C 127.698,70.4088 128.031,71.0755 126.5,72.5C 125.662,72.1583 125.328,71.4916 125.5,70.5 Z"/></g>
<g><path style="opacity:1" fill="#4a7e3a" d="M 147.5,70.5 C 147.833,70.5 148.167,70.5 148.5,70.5C 151.186,74.5085 154.353,78.1751 158,81.5C 158.667,80.1667 159.333,80.1667 160,81.5C 158.992,83.366 159.492,84.6993 161.5,85.5C 161.672,86.4916 161.338,87.1583 160.5,87.5C 155.117,82.5926 149.284,82.2593 143,86.5C 141.316,86.3166 141.15,85.6499 142.5,84.5C 145.579,82.9805 148.912,82.1471 152.5,82C 148.584,78.5903 145.251,74.757 142.5,70.5C 142.141,68.629 141.141,67.129 139.5,66C 140,65.5 140.5,65 141,64.5C 143.037,66.7059 145.203,68.7059 147.5,70.5 Z"/></g>
<g><path style="opacity:1" fill="#00c080" d="M 77.5,74.5 C 78.5,74.5 79.5,74.5 80.5,74.5C 80.5,77.1667 80.5,79.8333 80.5,82.5C 79.5,83.8333 78.5,83.8333 77.5,82.5C 77.5,79.8333 77.5,77.1667 77.5,74.5 Z"/></g>
<g><path style="opacity:1" fill="#89c345" d="M 115.5,75.5 C 116.167,75.5 116.5,75.8333 116.5,76.5C 116.672,77.4916 116.338,78.1583 115.5,78.5C 114.833,78.5 114.5,78.1667 114.5,77.5C 114.328,76.5084 114.662,75.8417 115.5,75.5 Z"/></g>
<g><path style="opacity:1" fill="#105526" d="M 118.5,69.5 C 121.637,73.4854 124.637,77.6521 127.5,82C 129.769,84.0229 132.436,84.8563 135.5,84.5C 133.706,85.2329 132.039,86.2329 130.5,87.5C 127.357,86.8665 124.857,85.1998 123,82.5C 120.822,78.8057 118.655,75.1391 116.5,71.5C 117.5,71.1667 118.167,70.5 118.5,69.5 Z"/></g>
<g><path style="opacity:1" fill="#46da55" d="M 48.5,77.5 C 52.3998,78.4299 56.3998,78.7633 60.5,78.5C 60.5,78.8333 60.5,79.1667 60.5,79.5C 56.1667,79.5 51.8333,79.5 47.5,79.5C 47.5,79.1667 47.5,78.8333 47.5,78.5C 48.1667,78.5 48.5,78.1667 48.5,77.5 Z"/></g>
<g><path style="opacity:1" fill="#79b719" d="M 72.5,72.5 C 73.5,72.8333 74.1667,73.5 74.5,74.5C 73.6862,76.631 73.1862,78.9644 73,81.5C 72.502,78.5184 72.3354,75.5184 72.5,72.5 Z"/></g>
<g><path style="opacity:1" fill="#019a43" d="M 90.5,52.5 C 90.1758,56.5546 90.5091,60.5546 91.5,64.5C 92.1835,64.1373 92.8501,63.8039 93.5,63.5C 93.5,70.8333 93.5,78.1667 93.5,85.5C 91.9081,84.3984 91.0748,85.065 91,87.5C 90.6174,86.944 90.1174,86.6107 89.5,86.5C 89.1719,74.9877 89.5052,63.6544 90.5,52.5 Z"/></g>
<g><path style="opacity:1" fill="#1f3d20" d="M 101.5,60.5 C 102.338,60.8417 102.672,61.5084 102.5,62.5C 102.334,72.8387 102.5,83.172 103,93.5C 103.169,86.8085 103.669,80.1419 104.5,73.5C 105.167,78.9853 105.833,84.3187 106.5,89.5C 106.5,90.5 106.5,91.5 106.5,92.5C 105.167,93.1667 105.167,93.8333 106.5,94.5C 106.5,95.1667 106.167,95.5 105.5,95.5C 105.167,95.5 104.833,95.5 104.5,95.5C 103.849,96.0906 103.182,96.7573 102.5,97.5C 101.501,85.1847 101.168,72.8513 101.5,60.5 Z"/></g>
<g><path style="opacity:1" fill="#4eda91" d="M 66.5,78.5 C 65.8333,80.1667 65.1667,81.8333 64.5,83.5C 54.5469,84.6168 44.5469,84.7835 34.5,84C 38.8484,82.4174 43.1818,81.2508 47.5,80.5C 51.8333,80.5 56.1667,80.5 60.5,80.5C 62.3146,79.3702 64.3146,78.7036 66.5,78.5 Z"/></g>
<g><path style="opacity:1" fill="#3a7535" d="M 102.5,62.5 C 103.117,62.6107 103.617,62.944 104,63.5C 105.951,69.3406 106.784,75.3406 106.5,81.5C 106.263,82.791 106.596,83.791 107.5,84.5C 107.5,85.5 107.5,86.5 107.5,87.5C 107.672,88.4916 107.338,89.1583 106.5,89.5C 105.833,84.3187 105.167,78.9853 104.5,73.5C 103.669,80.1419 103.169,86.8085 103,93.5C 102.5,83.172 102.334,72.8387 102.5,62.5 Z"/></g>
<g><path style="opacity:1" fill="#24e63e" d="M 85.5,71.5 C 85.5,77.5 85.5,83.5 85.5,89.5C 84.2921,90.2341 82.9587,90.5674 81.5,90.5C 81.3341,85.4889 81.5007,80.4889 82,75.5C 82.4983,73.4556 83.665,72.1223 85.5,71.5 Z"/></g>
<g><path style="opacity:1" fill="#0c4726" d="M 114.5,86.5 C 115.11,87.391 115.443,88.391 115.5,89.5C 113.833,89.5 112.167,89.5 110.5,89.5C 110.392,87.2166 109.559,85.2166 108,83.5C 107.601,83.7284 107.435,84.0618 107.5,84.5C 106.596,83.791 106.263,82.791 106.5,81.5C 107.309,79.7078 107.809,77.7078 108,75.5C 110.178,79.1943 112.345,82.8609 114.5,86.5 Z"/></g>
<g><path style="opacity:1" fill="#5a9960" d="M 119.5,81.5 C 119.672,82.4916 119.338,83.1583 118.5,83.5C 118.5,82.8333 118.167,82.5 117.5,82.5C 117.409,80.3023 118.075,79.9689 119.5,81.5 Z"/></g>
<g><path style="opacity:1" fill="#162c18" d="M 142.5,70.5 C 145.251,74.757 148.584,78.5903 152.5,82C 148.912,82.1471 145.579,82.9805 142.5,84.5C 141.15,85.6499 141.316,86.3166 143,86.5C 149.284,82.2593 155.117,82.5926 160.5,87.5C 160.5,87.8333 160.5,88.1667 160.5,88.5C 152.981,88.175 145.648,88.5084 138.5,89.5C 138.5,90.1667 138.5,90.8333 138.5,91.5C 138.5,97.8333 138.5,104.167 138.5,110.5C 139.11,111.391 139.443,112.391 139.5,113.5C 139.19,114.738 138.69,114.738 138,113.5C 137.667,114.5 137.333,115.5 137,116.5C 136.5,107.506 136.334,98.5062 136.5,89.5C 137.833,89.1667 137.833,88.8333 136.5,88.5C 134.265,88.7947 132.265,88.4614 130.5,87.5C 132.039,86.2329 133.706,85.2329 135.5,84.5C 136.496,84.5858 137.329,84.2524 138,83.5C 140.065,76.9435 138.565,71.2769 133.5,66.5C 132.099,63.3661 130.432,60.3661 128.5,57.5C 128.435,57.0618 128.601,56.7284 129,56.5C 133.286,61.4336 137.786,66.1003 142.5,70.5 Z"/></g>
<g><path style="opacity:1" fill="#7c7d00" d="M 162.5,85.5 C 161.833,84.1667 161.833,84.1667 162.5,85.5 Z"/></g>
<g><path style="opacity:1" fill="#33ec69" d="M 98.5,93.5 C 97.2954,91.8624 95.9621,91.5291 94.5,92.5C 94.5,88.1667 94.5,83.8333 94.5,79.5C 95.8221,79.67 96.9887,79.3366 98,78.5C 98.4993,83.4889 98.6659,88.4889 98.5,93.5 Z"/></g>
<g><path style="opacity:1" fill="#52973c" d="M 116.5,82.5 C 116.833,82.5 117.167,82.5 117.5,82.5C 118.167,82.5 118.5,82.8333 118.5,83.5C 119.11,85.4341 120.11,87.1007 121.5,88.5C 121.5,88.8333 121.5,89.1667 121.5,89.5C 121.167,89.5 120.833,89.5 120.5,89.5C 118.833,89.5 117.167,89.5 115.5,89.5C 115.443,88.391 115.11,87.391 114.5,86.5C 115.653,85.6868 115.653,84.6868 114.5,83.5C 114.957,82.7025 115.624,82.3691 116.5,82.5 Z"/></g>
<g><path style="opacity:1" fill="#fa4400" d="M 162.5,85.5 C 163.525,85.8966 163.692,86.5632 163,87.5C 162.536,86.9056 162.369,86.2389 162.5,85.5 Z"/></g>
<g><path style="opacity:1" fill="#020701" d="M 32.5,86.5 C 43.8333,86.5 55.1667,86.5 66.5,86.5C 65.8333,87.1667 65.1667,87.8333 64.5,88.5C 54.5,88.5 44.5,88.5 34.5,88.5C 34.5,87.8333 34.1667,87.5 33.5,87.5C 32.8333,87.5 32.5,87.1667 32.5,86.5 Z"/></g>
<g><path style="opacity:1" fill="#69cc12" d="M 124.5,87.5 C 125.492,87.3284 126.158,87.6618 126.5,88.5C 125.5,88.5 124.5,88.5 123.5,88.5C 123.167,88.5 122.833,88.5 122.5,88.5C 122.167,88.5 121.833,88.5 121.5,88.5C 121.369,87.7611 121.536,87.0944 122,86.5C 122.671,87.2524 123.504,87.5858 124.5,87.5 Z"/></g>
<g><path style="opacity:1" fill="#f90000" d="M 160.5,88.5 C 161.833,89.1667 161.833,89.1667 160.5,88.5 Z"/></g>
<g><path style="opacity:1" fill="#83c642" d="M 138.5,89.5 C 144.5,89.5 150.5,89.5 156.5,89.5C 156.672,90.4916 156.338,91.1583 155.5,91.5C 150.684,90.3503 145.684,90.1837 140.5,91C 141.056,91.3826 141.389,91.8826 141.5,92.5C 140.391,92.4431 139.391,92.1098 138.5,91.5C 138.5,90.8333 138.5,90.1667 138.5,89.5 Z"/></g>
<g><path style="opacity:1" fill="#1e3117" d="M 122.5,88.5 C 122.833,88.5 123.167,88.5 123.5,88.5C 124.919,89.4511 126.585,89.7845 128.5,89.5C 130.5,89.5 132.5,89.5 134.5,89.5C 131.038,90.4816 127.371,90.815 123.5,90.5C 122.11,91.8993 121.11,93.5659 120.5,95.5C 117.167,100.5 113.833,105.5 110.5,110.5C 110.167,110.5 109.833,110.5 109.5,110.5C 109.167,107.833 108.833,107.833 108.5,110.5C 107.167,110.833 107.167,111.167 108.5,111.5C 108.5,112.167 108.167,112.5 107.5,112.5C 106.833,112.5 106.5,112.833 106.5,113.5C 105.662,113.842 105.328,114.508 105.5,115.5C 104.662,115.842 104.328,116.508 104.5,117.5C 104.167,117.5 103.833,117.5 103.5,117.5C 103.565,117.062 103.399,116.728 103,116.5C 102.148,117.571 101.315,118.571 100.5,119.5C 100.183,115.298 100.517,111.298 101.5,107.5C 102.915,107.094 104.081,107.761 105,109.5C 108.271,102.622 111.771,95.9552 115.5,89.5C 117.167,89.5 118.833,89.5 120.5,89.5C 120.833,90.8333 121.167,90.8333 121.5,89.5C 122.167,89.5 122.5,89.1667 122.5,88.5 Z"/></g>
<g><path style="opacity:1" fill="#f97d7c" d="M 160.5,90.5 C 161.833,91.1667 161.833,91.1667 160.5,90.5 Z"/></g>
<g><path style="opacity:1" fill="#4ef18a" d="M 155.5,91.5 C 153.214,91.595 151.214,92.2616 149.5,93.5C 147.559,93.8693 145.725,94.536 144,95.5C 142.955,94.6266 142.122,93.6266 141.5,92.5C 141.389,91.8826 141.056,91.3826 140.5,91C 145.684,90.1837 150.684,90.3503 155.5,91.5 Z"/></g>
<g><path style="opacity:1" fill="#7c7d00" d="M 159.5,91.5 C 159.833,91.5 160.167,91.5 160.5,91.5C 160.315,92.1701 159.981,92.1701 159.5,91.5 Z"/></g>
<g><path style="opacity:1" fill="#58d55c" d="M 65.5,88.5 C 67.0481,88.8212 67.7148,89.8212 67.5,91.5C 67.1667,91.5 66.8333,91.5 66.5,91.5C 64.9301,90.4407 63.5968,90.9407 62.5,93C 55.8417,93.4996 49.175,93.6663 42.5,93.5C 41.1667,93.5 39.8333,93.5 38.5,93.5C 35.4842,93.1594 32.8175,91.9927 30.5,90C 42.3405,89.8307 54.0072,89.3307 65.5,88.5 Z"/></g>
<g><path style="opacity:1" fill="#04622f" d="M 93.5,85.5 C 93.5,92.5 93.5,99.5 93.5,106.5C 92.7172,108.328 91.3839,109.661 89.5,110.5C 89.5,102.5 89.5,94.5 89.5,86.5C 90.1174,86.6107 90.6174,86.944 91,87.5C 91.0748,85.065 91.9081,84.3984 93.5,85.5 Z"/></g>
<g><path style="opacity:1" fill="#f9a850" d="M 158.5,92.5 C 158.833,92.5 159.167,92.5 159.5,92.5C 159.315,93.1701 158.981,93.1701 158.5,92.5 Z"/></g>
<g><path style="opacity:1" fill="#f9a800" d="M 157.5,93.5 C 157.833,93.5 158.167,93.5 158.5,93.5C 158.315,94.1701 157.981,94.1701 157.5,93.5 Z"/></g>
<g><path style="opacity:1" fill="#f9a800" d="M 156.5,94.5 C 156.833,94.5 157.167,94.5 157.5,94.5C 157.315,95.1701 156.981,95.1701 156.5,94.5 Z"/></g>
<g><path style="opacity:1" fill="#87e68d" d="M 123.5,90.5 C 124.058,91.7899 125.058,92.6232 126.5,93C 125.944,93.3826 125.611,93.8826 125.5,94.5C 123.316,98.8811 120.65,102.881 117.5,106.5C 116.957,106.44 116.624,106.107 116.5,105.5C 117.379,102.299 119.045,99.6322 121.5,97.5C 121.457,96.5836 121.124,95.9169 120.5,95.5C 121.11,93.5659 122.11,91.8993 123.5,90.5 Z"/></g>
<g><path style="opacity:1" fill="#f9fa7c" d="M 155.5,95.5 C 155.833,95.5 156.167,95.5 156.5,95.5C 156.315,96.1701 155.981,96.1701 155.5,95.5 Z"/></g>
<g><path style="opacity:1" fill="#55d651" d="M 134.5,89.5 C 134.833,89.5 135.167,89.5 135.5,89.5C 135.5,90.1667 135.5,90.8333 135.5,91.5C 134.5,92.1667 133.5,92.8333 132.5,93.5C 131.518,96.9619 131.185,100.629 131.5,104.5C 130.395,105.6 129.062,106.267 127.5,106.5C 127.008,102.543 127.675,98.8768 129.5,95.5C 128.311,94.5713 126.978,94.238 125.5,94.5C 125.611,93.8826 125.944,93.3826 126.5,93C 125.058,92.6232 124.058,91.7899 123.5,90.5C 127.371,90.815 131.038,90.4816 134.5,89.5 Z"/></g>
<g><path style="opacity:1" fill="#f9fa7c" d="M 154.5,96.5 C 154.833,96.5 155.167,96.5 155.5,96.5C 155.315,97.1701 154.981,97.1701 154.5,96.5 Z"/></g>
<g><path style="opacity:1" fill="#0d1a0c" d="M 57.5,111.5 C 56.5,113.5 55.5,115.5 54.5,117.5C 54.5,117.833 54.5,118.167 54.5,118.5C 53.8333,117.833 53.1667,117.167 52.5,116.5C 52.5,116.167 52.5,115.833 52.5,115.5C 53.7973,110.934 53.7973,106.267 52.5,101.5C 52.1667,101.5 51.8333,101.5 51.5,101.5C 51.5,100.833 51.1667,100.5 50.5,100.5C 50.6716,99.5084 50.3382,98.8417 49.5,98.5C 42.8266,94.1654 43.1599,93.6654 50.5,97C 52.8991,97.711 55.2324,97.5443 57.5,96.5C 57.8333,97.1667 58.1667,97.8333 58.5,98.5C 57.6976,101.574 56.6976,104.574 55.5,107.5C 55.6682,109.171 56.3349,110.504 57.5,111.5 Z M 52.5,101.5 C 51.913,100.233 51.913,99.2334 52.5,98.5C 53.7759,99.6136 53.7759,100.614 52.5,101.5 Z"/></g>
<g><path style="opacity:1" fill="#4ad65d" d="M 110.5,89.5 C 112.167,89.5 113.833,89.5 115.5,89.5C 111.771,95.9552 108.271,102.622 105,109.5C 104.081,107.761 102.915,107.094 101.5,107.5C 104.471,101.558 107.471,95.5577 110.5,89.5 Z"/></g>
<g><path style="opacity:1" fill="#14441d" d="M 66.5,91.5 C 66.5,92.1667 66.5,92.8333 66.5,93.5C 65.6618,93.8417 65.3284,94.5084 65.5,95.5C 64.8333,95.5 64.5,95.8333 64.5,96.5C 64.5,96.8333 64.5,97.1667 64.5,97.5C 63.6618,97.8417 63.3284,98.5084 63.5,99.5C 62.6618,99.8417 62.3284,100.508 62.5,101.5C 61.6618,101.842 61.3284,102.508 61.5,103.5C 60.1667,103.833 60.1667,104.167 61.5,104.5C 61.5,105.167 61.1667,105.5 60.5,105.5C 59.8333,105.5 59.5,105.833 59.5,106.5C 58.6618,106.842 58.3284,107.508 58.5,108.5C 57.8333,108.5 57.5,108.833 57.5,109.5C 57.5,110.167 57.5,110.833 57.5,111.5C 56.3349,110.504 55.6682,109.171 55.5,107.5C 56.6976,104.574 57.6976,101.574 58.5,98.5C 58.1667,97.8333 57.8333,97.1667 57.5,96.5C 55.2324,97.5443 52.8991,97.711 50.5,97C 43.1599,93.6654 42.8266,94.1654 49.5,98.5C 49.5,99.1667 49.5,99.8333 49.5,100.5C 46.033,100.554 43.3663,99.0543 41.5,96C 42.2524,95.3292 42.5858,94.4959 42.5,93.5C 49.175,93.6663 55.8417,93.4996 62.5,93C 63.5968,90.9407 64.9301,90.4407 66.5,91.5 Z"/></g>
<g><path style="opacity:1" fill="#1e602c" d="M 77.5,82.5 C 78.5,83.8333 79.5,83.8333 80.5,82.5C 80.3338,88.8421 80.5005,95.1754 81,101.5C 81.4986,97.8484 81.6653,94.1817 81.5,90.5C 82.9587,90.5674 84.2921,90.2341 85.5,89.5C 85.5,94.1667 85.5,98.8333 85.5,103.5C 83.8356,102.051 83.0023,100.051 83,97.5C 82.7087,102.189 82.7087,106.856 83,111.5C 77.9347,102.546 76.1014,92.8795 77.5,82.5 Z"/></g>
<g><path style="opacity:1" fill="#756035" d="M 153.5,96.5 C 153.5,97.1667 153.833,97.5 154.5,97.5C 154.262,99.4044 153.262,100.738 151.5,101.5C 151.167,100.167 150.833,100.167 150.5,101.5C 149.833,101.5 149.5,101.833 149.5,102.5C 148.833,102.5 148.5,102.833 148.5,103.5C 147.833,103.5 147.5,103.833 147.5,104.5C 146.833,104.5 146.5,104.833 146.5,105.5C 145.833,105.5 145.5,105.833 145.5,106.5C 144.833,106.5 144.5,106.833 144.5,107.5C 143.833,107.5 143.5,107.833 143.5,108.5C 142.833,108.5 142.5,108.833 142.5,109.5C 141.833,109.5 141.5,109.833 141.5,110.5C 140.833,111.5 140.167,112.5 139.5,113.5C 139.443,112.391 139.11,111.391 138.5,110.5C 139.5,110.167 140.167,109.5 140.5,108.5C 145.111,104.732 148.111,100.899 149.5,97C 150.793,96.51 152.127,96.3433 153.5,96.5 Z"/></g>
<g><path style="opacity:1" fill="#313619" d="M 34.5,74.5 C 35.0431,74.56 35.3764,74.8933 35.5,75.5C 33.7224,77.264 32.3891,79.264 31.5,81.5C 31.1412,83.371 30.1412,84.871 28.5,86C 29.7932,86.49 31.1266,86.6567 32.5,86.5C 32.5,87.1667 32.8333,87.5 33.5,87.5C 34.1667,87.5 34.5,87.8333 34.5,88.5C 44.5,88.5 54.5,88.5 64.5,88.5C 64.8333,88.5 65.1667,88.5 65.5,88.5C 54.0072,89.3307 42.3405,89.8307 30.5,90C 32.8175,91.9927 35.4842,93.1594 38.5,93.5C 41.4864,97.817 44.8197,101.817 48.5,105.5C 49.3234,108.48 50.6567,111.147 52.5,113.5C 52.5,113.833 52.5,114.167 52.5,114.5C 44.4142,107.246 36.7475,99.4124 29.5,91C 28.552,90.5172 27.552,90.3505 26.5,90.5C 26.2969,88.9557 25.6302,87.6223 24.5,86.5C 27.5095,82.1637 30.8428,78.1637 34.5,74.5 Z"/></g>
<g><path style="opacity:1" fill="#3b6d26" d="M 38.5,93.5 C 39.8333,93.5 41.1667,93.5 42.5,93.5C 42.5858,94.4959 42.2524,95.3292 41.5,96C 43.3663,99.0543 46.033,100.554 49.5,100.5C 49.8333,100.5 50.1667,100.5 50.5,100.5C 51.1667,100.5 51.5,100.833 51.5,101.5C 51.5,101.833 51.5,102.167 51.5,102.5C 50.5,102.5 49.5,102.5 48.5,102.5C 48.5,103.5 48.5,104.5 48.5,105.5C 44.8197,101.817 41.4864,97.817 38.5,93.5 Z"/></g>
<g><path style="opacity:1" fill="#1c3b1c" d="M 125.5,94.5 C 126.978,94.238 128.311,94.5713 129.5,95.5C 127.675,98.8768 127.008,102.543 127.5,106.5C 127.5,108.833 127.5,111.167 127.5,113.5C 126.674,108.684 126.174,103.684 126,98.5C 125.51,99.7932 125.343,101.127 125.5,102.5C 124.167,102.833 124.167,103.167 125.5,103.5C 125.5,104.167 125.5,104.833 125.5,105.5C 125.167,105.5 124.833,105.5 124.5,105.5C 124.167,104.167 123.833,104.167 123.5,105.5C 122.662,105.842 122.328,106.508 122.5,107.5C 121.662,107.842 121.328,108.508 121.5,109.5C 120.833,109.5 120.5,109.833 120.5,110.5C 118.811,111.304 117.145,112.304 115.5,113.5C 115.167,113.167 114.833,112.833 114.5,112.5C 116.038,110.757 117.038,108.757 117.5,106.5C 120.65,102.881 123.316,98.8811 125.5,94.5 Z"/></g>
<g><path style="opacity:1" fill="#03371d" d="M 135.5,91.5 C 135.5,99.1667 135.5,106.833 135.5,114.5C 134.5,114.5 133.5,114.5 132.5,114.5C 132.5,107.5 132.5,100.5 132.5,93.5C 133.5,92.8333 134.5,92.1667 135.5,91.5 Z"/></g>
<g><path style="opacity:1" fill="#f9fa00" d="M 150.5,101.5 C 150.833,101.5 151.167,101.5 151.5,101.5C 151.315,102.17 150.981,102.17 150.5,101.5 Z"/></g>
<g><path style="opacity:1" fill="#20501a" d="M 138.5,91.5 C 139.391,92.1098 140.391,92.4431 141.5,92.5C 142.122,93.6266 142.955,94.6266 144,95.5C 145.725,94.536 147.559,93.8693 149.5,93.5C 147.589,95.9171 145.422,98.2504 143,100.5C 141.659,103.022 140.826,105.689 140.5,108.5C 140.167,109.5 139.5,110.167 138.5,110.5C 138.5,104.167 138.5,97.8333 138.5,91.5 Z"/></g>
<g><path style="opacity:1" fill="#f9fa00" d="M 149.5,102.5 C 149.833,102.5 150.167,102.5 150.5,102.5C 150.315,103.17 149.981,103.17 149.5,102.5 Z"/></g>
<g><path style="opacity:1" fill="#1c2b12" d="M 156.5,89.5 C 157.833,89.5 159.167,89.5 160.5,89.5C 160.5,89.8333 160.5,90.1667 160.5,90.5C 159.833,90.5 159.5,90.8333 159.5,91.5C 158.833,91.5 158.5,91.8333 158.5,92.5C 157.833,92.5 157.5,92.8333 157.5,93.5C 156.833,93.5 156.5,93.8333 156.5,94.5C 155.833,94.5 155.5,94.8333 155.5,95.5C 154.833,95.5 154.5,95.8333 154.5,96.5C 154.167,96.5 153.833,96.5 153.5,96.5C 152.127,96.3433 150.793,96.51 149.5,97C 148.111,100.899 145.111,104.732 140.5,108.5C 140.826,105.689 141.659,103.022 143,100.5C 145.422,98.2504 147.589,95.9171 149.5,93.5C 151.214,92.2616 153.214,91.595 155.5,91.5C 156.338,91.1583 156.672,90.4916 156.5,89.5 Z"/></g>
<g><path style="opacity:1" fill="#f9faf9" d="M 148.5,103.5 C 148.833,103.5 149.167,103.5 149.5,103.5C 149.315,104.17 148.981,104.17 148.5,103.5 Z"/></g>
<g><path style="opacity:1" fill="#7c7d7c" d="M 147.5,104.5 C 147.833,104.5 148.167,104.5 148.5,104.5C 148.315,105.17 147.981,105.17 147.5,104.5 Z"/></g>
<g><path style="opacity:1" fill="#120a02" d="M 26.5,90.5 C 27.552,90.3505 28.552,90.5172 29.5,91C 36.7475,99.4124 44.4142,107.246 52.5,114.5C 52.5,114.833 52.5,115.167 52.5,115.5C 51.8333,115.5 51.5,115.833 51.5,116.5C 42.5427,108.541 34.2093,99.8739 26.5,90.5 Z"/></g>
<g><path style="opacity:1" fill="#62b94f" d="M 51.5,102.5 C 52.4227,106.064 52.756,109.731 52.5,113.5C 50.6567,111.147 49.3234,108.48 48.5,105.5C 48.5,104.5 48.5,103.5 48.5,102.5C 49.5,102.5 50.5,102.5 51.5,102.5 Z"/></g>
<g><path style="opacity:1" fill="#018f3e" d="M 98.5,93.5 C 98.5,98.5 98.5,103.5 98.5,108.5C 98.5,108.833 98.5,109.167 98.5,109.5C 97.2101,110.058 96.3768,111.058 96,112.5C 95.8195,109.305 95.3195,106.305 94.5,103.5C 94.5,99.8333 94.5,96.1667 94.5,92.5C 95.9621,91.5291 97.2954,91.8624 98.5,93.5 Z"/></g>
<g><path style="opacity:1" fill="#f97d7c" d="M 146.5,105.5 C 146.833,105.5 147.167,105.5 147.5,105.5C 147.315,106.17 146.981,106.17 146.5,105.5 Z"/></g>
<g><path style="opacity:1" fill="#6be279" d="M 76.5,104.5 C 78.1042,105.287 78.7709,106.62 78.5,108.5C 78.1667,108.5 77.8333,108.5 77.5,108.5C 77.6716,107.508 77.3382,106.842 76.5,106.5C 76.5,105.833 76.5,105.167 76.5,104.5 Z"/></g>
<g><path style="opacity:1" fill="#382e12" d="M 123.5,105.5 C 123.833,105.5 124.167,105.5 124.5,105.5C 124.5,107.167 124.5,108.833 124.5,110.5C 123.508,110.672 122.842,110.338 122.5,109.5C 122.5,108.833 122.5,108.167 122.5,107.5C 123.338,107.158 123.672,106.492 123.5,105.5 Z"/></g>
<g><path style="opacity:1" fill="#f9fa7c" d="M 145.5,106.5 C 145.833,106.5 146.167,106.5 146.5,106.5C 146.315,107.17 145.981,107.17 145.5,106.5 Z"/></g>
<g><path style="opacity:1" fill="#f9fa7c" d="M 144.5,107.5 C 144.833,107.5 145.167,107.5 145.5,107.5C 145.315,108.17 144.981,108.17 144.5,107.5 Z"/></g>
<g><path style="opacity:1" fill="#f9fa7c" d="M 143.5,108.5 C 143.833,108.5 144.167,108.5 144.5,108.5C 144.315,109.17 143.981,109.17 143.5,108.5 Z"/></g>
<g><path style="opacity:1" fill="#0d190c" d="M 66.5,93.5 C 66.8333,93.5 67.1667,93.5 67.5,93.5C 66.2323,100.707 62.899,106.707 57.5,111.5C 57.5,110.833 57.5,110.167 57.5,109.5C 58.1667,109.5 58.5,109.167 58.5,108.5C 59.3382,108.158 59.6716,107.492 59.5,106.5C 60.1667,106.5 60.5,106.167 60.5,105.5C 61.1667,105.5 61.5,105.167 61.5,104.5C 61.5,104.167 61.5,103.833 61.5,103.5C 62.3382,103.158 62.6716,102.492 62.5,101.5C 63.3382,101.158 63.6716,100.492 63.5,99.5C 64.3382,99.1583 64.6716,98.4916 64.5,97.5C 65.8333,97.1667 65.8333,96.8333 64.5,96.5C 64.5,95.8333 64.8333,95.5 65.5,95.5C 66.3382,95.1583 66.6716,94.4916 66.5,93.5 Z"/></g>
<g><path style="opacity:1" fill="#51de4b" d="M 120.5,95.5 C 121.124,95.9169 121.457,96.5836 121.5,97.5C 119.045,99.6322 117.379,102.299 116.5,105.5C 116.624,106.107 116.957,106.44 117.5,106.5C 117.038,108.757 116.038,110.757 114.5,112.5C 114.833,112.833 115.167,113.167 115.5,113.5C 117.145,112.304 118.811,111.304 120.5,110.5C 121.167,110.5 121.5,110.167 121.5,109.5C 121.833,109.5 122.167,109.5 122.5,109.5C 122.842,110.338 123.508,110.672 124.5,110.5C 124.833,110.5 125.167,110.5 125.5,110.5C 124.791,111.404 123.791,111.737 122.5,111.5C 122.768,113.099 122.434,114.432 121.5,115.5C 118.287,115.19 115.287,115.523 112.5,116.5C 111.833,116.5 111.5,116.833 111.5,117.5C 110.326,116.486 109.66,115.153 109.5,113.5C 109.557,112.391 109.89,111.391 110.5,110.5C 113.833,105.5 117.167,100.5 120.5,95.5 Z"/></g>
<g><path style="opacity:1" fill="#f9a850" d="M 142.5,109.5 C 142.833,109.5 143.167,109.5 143.5,109.5C 143.315,110.17 142.981,110.17 142.5,109.5 Z"/></g>
<g><path style="opacity:1" fill="#f9a850" d="M 141.5,110.5 C 141.833,110.5 142.167,110.5 142.5,110.5C 142.315,111.17 141.981,111.17 141.5,110.5 Z"/></g>
<g><path style="opacity:1" fill="#59e165" d="M 74.5,102.5 C 74.3284,103.492 74.6618,104.158 75.5,104.5C 75.3284,105.492 75.6618,106.158 76.5,106.5C 76.5,107.167 76.5,107.833 76.5,108.5C 75.8166,110.176 74.4832,110.843 72.5,110.5C 71.6597,108.147 70.3264,106.147 68.5,104.5C 65.5914,107.981 62.9247,111.648 60.5,115.5C 58.5786,116.363 56.5786,117.029 54.5,117.5C 55.5,115.5 56.5,113.5 57.5,111.5C 62.899,106.707 66.2323,100.707 67.5,93.5C 67.5,92.8333 67.5,92.1667 67.5,91.5C 68.2216,91.0825 68.7216,90.4158 69,89.5C 69.6838,90.7839 69.5171,91.9505 68.5,93C 70.6497,96.1467 72.6497,99.3133 74.5,102.5 Z"/></g>
<g><path style="opacity:1" fill="#1e601d" d="M 131.5,104.5 C 131.993,111.107 130.993,117.44 128.5,123.5C 127.521,120.375 127.187,117.042 127.5,113.5C 127.5,111.167 127.5,108.833 127.5,106.5C 129.062,106.267 130.395,105.6 131.5,104.5 Z"/></g>
<g><path style="opacity:1" fill="#58ad3f" d="M 76.5,108.5 C 76.8333,108.5 77.1667,108.5 77.5,108.5C 77.5,109.167 77.8333,109.5 78.5,109.5C 78.3284,110.492 78.6618,111.158 79.5,111.5C 79.3284,112.492 79.6618,113.158 80.5,113.5C 80.5,114.167 80.5,114.833 80.5,115.5C 78.5842,113.884 77.0842,114.218 76,116.5C 75.074,114.308 73.9073,112.308 72.5,110.5C 74.4832,110.843 75.8166,110.176 76.5,108.5 Z"/></g>
<g><path style="opacity:1" fill="#0c160a" d="M 108.5,110.5 C 108.833,110.5 109.167,110.5 109.5,110.5C 109.833,110.5 110.167,110.5 110.5,110.5C 109.89,111.391 109.557,112.391 109.5,113.5C 103.377,120.413 99.3769,128.413 97.5,137.5C 96.5713,140.675 95.738,144.009 95,147.5C 94.1617,142.357 93.3284,137.357 92.5,132.5C 92.5,131.833 92.5,131.167 92.5,130.5C 93.8333,128.5 93.8333,126.5 92.5,124.5C 91.5416,124.953 90.7083,125.619 90,126.5C 89.5065,124.866 89.3398,123.199 89.5,121.5C 91.7782,119.348 93.1116,116.681 93.5,113.5C 93.8333,113.5 94.1667,113.5 94.5,113.5C 94.1746,118.599 94.6746,123.599 96,128.5C 96.7083,127.619 97.5416,126.953 98.5,126.5C 99.5135,125.341 99.8468,123.341 99.5,120.5C 100.167,120.5 100.5,120.167 100.5,119.5C 101.315,118.571 102.148,117.571 103,116.5C 103.399,116.728 103.565,117.062 103.5,117.5C 103.833,118.833 104.167,118.833 104.5,117.5C 105.338,117.158 105.672,116.492 105.5,115.5C 106.338,115.158 106.672,114.492 106.5,113.5C 107.167,113.5 107.5,113.167 107.5,112.5C 108.167,112.5 108.5,112.167 108.5,111.5C 108.5,111.167 108.5,110.833 108.5,110.5 Z"/></g>
<g><path style="opacity:1" fill="#4cd785" d="M 93.5,106.5 C 93.5,108.833 93.5,111.167 93.5,113.5C 93.1116,116.681 91.7782,119.348 89.5,121.5C 87.7085,121.366 86.0418,121.699 84.5,122.5C 83.8902,121.609 83.5569,120.609 83.5,119.5C 84.4959,119.586 85.3292,119.252 86,118.5C 87.4538,115.929 88.6205,113.262 89.5,110.5C 91.3839,109.661 92.7172,108.328 93.5,106.5 Z"/></g>
<g><path style="opacity:1" fill="#66551c" d="M 132.5,93.5 C 132.5,100.5 132.5,107.5 132.5,114.5C 133.5,114.5 134.5,114.5 135.5,114.5C 135.586,115.496 135.252,116.329 134.5,117C 136.986,117.705 136.986,118.538 134.5,119.5C 134.167,118.167 133.833,118.167 133.5,119.5C 132.833,119.5 132.5,119.833 132.5,120.5C 131.833,120.5 131.5,120.833 131.5,121.5C 130.833,121.5 130.5,121.833 130.5,122.5C 129.833,122.5 129.5,122.833 129.5,123.5C 129.167,123.5 128.833,123.5 128.5,123.5C 130.993,117.44 131.993,111.107 131.5,104.5C 131.185,100.629 131.518,96.9619 132.5,93.5 Z"/></g>
<g><path style="opacity:1" fill="#143920" d="M 72.5,110.5 C 73.9073,112.308 75.074,114.308 76,116.5C 77.0842,114.218 78.5842,113.884 80.5,115.5C 80.8333,115.5 81.1667,115.5 81.5,115.5C 81.2627,116.791 81.596,117.791 82.5,118.5C 82.5,119.167 82.8333,119.5 83.5,119.5C 83.5569,120.609 83.8902,121.609 84.5,122.5C 85.1009,125.968 86.1009,129.301 87.5,132.5C 87.6495,133.552 87.4828,134.552 87,135.5C 84.6333,131.147 82.2999,126.813 80,122.5C 79.6466,123.672 79.8132,124.838 80.5,126C 79.9444,127.011 79.2778,127.844 78.5,128.5C 74.5205,122.551 71.0205,116.217 68,109.5C 67.6155,111.197 67.7822,112.863 68.5,114.5C 68.1667,114.5 67.8333,114.5 67.5,114.5C 67.1667,113.167 66.8333,113.167 66.5,114.5C 65.6618,114.842 65.3284,115.508 65.5,116.5C 64.2223,116.782 63.2223,117.449 62.5,118.5C 61.0937,118.027 60.427,117.027 60.5,115.5C 62.9247,111.648 65.5914,107.981 68.5,104.5C 70.3264,106.147 71.6597,108.147 72.5,110.5 Z"/></g>
<g><path style="opacity:1" fill="#0a4406" d="M 66.5,114.5 C 66.8333,114.5 67.1667,114.5 67.5,114.5C 67.3284,115.492 67.6618,116.158 68.5,116.5C 68.6716,117.492 68.3382,118.158 67.5,118.5C 67.5,117.833 67.1667,117.5 66.5,117.5C 66.5,116.5 66.5,115.5 66.5,114.5 Z"/></g>
<g><path style="opacity:1" fill="#141e11" d="M 127.5,113.5 C 127.187,117.042 127.521,120.375 128.5,123.5C 128.5,123.833 128.5,124.167 128.5,124.5C 127.833,125.5 127.167,126.5 126.5,127.5C 126.167,123.5 125.833,123.5 125.5,127.5C 124.833,127.5 124.5,127.833 124.5,128.5C 123.833,128.5 123.5,128.833 123.5,129.5C 122.833,129.5 122.5,129.833 122.5,130.5C 121.833,130.5 121.5,130.833 121.5,131.5C 121.167,131.5 120.833,131.5 120.5,131.5C 119.5,131.5 118.5,131.5 117.5,131.5C 117.649,132.552 117.483,133.552 117,134.5C 113.888,137.101 111.388,140.101 109.5,143.5C 109.5,143.833 109.5,144.167 109.5,144.5C 108.833,144.5 108.5,144.833 108.5,145.5C 107.833,145.5 107.5,145.833 107.5,146.5C 107.167,146.5 106.833,146.5 106.5,146.5C 105.624,146.631 104.957,146.298 104.5,145.5C 105.524,144.148 106.524,142.815 107.5,141.5C 110.167,138.5 112.833,135.5 115.5,132.5C 117.127,130.37 118.96,128.37 121,126.5C 121.499,122.848 121.665,119.182 121.5,115.5C 122.434,114.432 122.768,113.099 122.5,111.5C 123.791,111.737 124.791,111.404 125.5,110.5C 125.5,108.833 125.5,107.167 125.5,105.5C 125.5,104.833 125.5,104.167 125.5,103.5C 125.5,103.167 125.5,102.833 125.5,102.5C 125.343,101.127 125.51,99.7932 126,98.5C 126.174,103.684 126.674,108.684 127.5,113.5 Z"/></g>
<g><path style="opacity:1" fill="#005321" d="M 94.5,103.5 C 95.3195,106.305 95.8195,109.305 96,112.5C 96.3768,111.058 97.2101,110.058 98.5,109.5C 98.5,112.167 98.5,114.833 98.5,117.5C 98.5,118.167 98.5,118.833 98.5,119.5C 98.5,119.833 98.5,120.167 98.5,120.5C 98.5,122.5 98.5,124.5 98.5,126.5C 97.5416,126.953 96.7083,127.619 96,128.5C 94.6746,123.599 94.1746,118.599 94.5,113.5C 94.5,110.167 94.5,106.833 94.5,103.5 Z"/></g>
<g><path style="opacity:1" fill="#3ea033" d="M 109.5,113.5 C 109.66,115.153 110.326,116.486 111.5,117.5C 108.917,120.997 106.584,124.664 104.5,128.5C 102.678,131.472 100.844,134.472 99,137.5C 98.31,138.738 97.81,138.738 97.5,137.5C 99.3769,128.413 103.377,120.413 109.5,113.5 Z"/></g>
<g><path style="opacity:1" fill="#f90000" d="M 133.5,119.5 C 133.833,119.5 134.167,119.5 134.5,119.5C 134.315,120.17 133.981,120.17 133.5,119.5 Z"/></g>
<g><path style="opacity:1" fill="#437b16" d="M 60.5,115.5 C 60.427,117.027 61.0937,118.027 62.5,118.5C 63.7927,120.296 65.2927,121.963 67,123.5C 67.6667,124.167 67.6667,124.833 67,125.5C 65.6106,123.773 63.9439,122.439 62,121.5C 60.9889,122.056 60.1556,122.722 59.5,123.5C 58.1667,121.5 56.5,119.833 54.5,118.5C 54.5,118.167 54.5,117.833 54.5,117.5C 56.5786,117.029 58.5786,116.363 60.5,115.5 Z"/></g>
<g><path style="opacity:1" fill="#f90000" d="M 132.5,120.5 C 132.833,120.5 133.167,120.5 133.5,120.5C 133.315,121.17 132.981,121.17 132.5,120.5 Z"/></g>
<g><path style="opacity:1" fill="#f9fa00" d="M 131.5,121.5 C 131.833,121.5 132.167,121.5 132.5,121.5C 132.315,122.17 131.981,122.17 131.5,121.5 Z"/></g>
<g><path style="opacity:1" fill="#132f11" d="M 112.5,116.5 C 115.187,116.336 117.854,116.503 120.5,117C 118.531,121.423 116.198,125.59 113.5,129.5C 112.167,130.5 110.833,131.5 109.5,132.5C 108.833,132.5 108.167,132.5 107.5,132.5C 107.5,132.167 107.5,131.833 107.5,131.5C 108.833,131.167 108.833,130.833 107.5,130.5C 106.778,129.449 105.778,128.782 104.5,128.5C 106.584,124.664 108.917,120.997 111.5,117.5C 111.5,116.833 111.833,116.5 112.5,116.5 Z"/></g>
<g><path style="opacity:1" fill="#7c7d00" d="M 130.5,122.5 C 130.833,122.5 131.167,122.5 131.5,122.5C 131.315,123.17 130.981,123.17 130.5,122.5 Z"/></g>
<g><path style="opacity:1" fill="#f90000" d="M 129.5,123.5 C 129.833,123.5 130.167,123.5 130.5,123.5C 130.315,124.17 129.981,124.17 129.5,123.5 Z"/></g>
<g><path style="opacity:1" fill="#180f05" d="M 51.5,116.5 C 51.8333,116.5 52.1667,116.5 52.5,116.5C 53.1667,117.167 53.8333,117.833 54.5,118.5C 56.5,119.833 58.1667,121.5 59.5,123.5C 62.5,127.167 65.8333,130.5 69.5,133.5C 70.5,135.167 71.8333,136.5 73.5,137.5C 78.1345,143.469 83.1345,149.136 88.5,154.5C 88.631,155.239 88.4643,155.906 88,156.5C 78.0301,145.529 67.6968,134.863 57,124.5C 54.9205,121.935 53.0872,119.268 51.5,116.5 Z"/></g>
<g><path style="opacity:1" fill="#f9fa00" d="M 128.5,124.5 C 128.833,124.5 129.167,124.5 129.5,124.5C 129.315,125.17 128.981,125.17 128.5,124.5 Z"/></g>
<g><path style="opacity:1" fill="#27481e" d="M 65.5,116.5 C 65.5,117.167 65.8333,117.5 66.5,117.5C 67.1667,117.5 67.5,117.833 67.5,118.5C 68.1667,119.833 69.1667,120.833 70.5,121.5C 70.3284,122.492 70.6618,123.158 71.5,123.5C 71.5,124.167 71.8333,124.5 72.5,124.5C 72.5,125.167 72.8333,125.5 73.5,125.5C 73.5,126.167 73.5,126.833 73.5,127.5C 74.3982,130.436 75.2316,133.436 76,136.5C 73.7046,133.203 71.038,130.203 68,127.5C 67.5,128 67,128.5 66.5,129C 68.1412,130.129 69.1412,131.629 69.5,133.5C 65.8333,130.5 62.5,127.167 59.5,123.5C 60.1556,122.722 60.9889,122.056 62,121.5C 63.9439,122.439 65.6106,123.773 67,125.5C 67.6667,124.833 67.6667,124.167 67,123.5C 65.2927,121.963 63.7927,120.296 62.5,118.5C 63.2223,117.449 64.2223,116.782 65.5,116.5 Z"/></g>
<g><path style="opacity:1" fill="#2c8d3c" d="M 89.5,121.5 C 89.3398,123.199 89.5065,124.866 90,126.5C 90.7083,125.619 91.5416,124.953 92.5,124.5C 92.5,126.5 92.5,128.5 92.5,130.5C 92.5,131.167 92.5,131.833 92.5,132.5C 90.965,131.646 89.6316,131.646 88.5,132.5C 88.1667,132.5 87.8333,132.5 87.5,132.5C 86.1009,129.301 85.1009,125.968 84.5,122.5C 86.0418,121.699 87.7085,121.366 89.5,121.5 Z"/></g>
<g><path style="opacity:1" fill="#37a939" d="M 112.5,116.5 C 115.287,115.523 118.287,115.19 121.5,115.5C 121.665,119.182 121.499,122.848 121,126.5C 118.96,128.37 117.127,130.37 115.5,132.5C 114.833,131.5 114.167,130.5 113.5,129.5C 116.198,125.59 118.531,121.423 120.5,117C 117.854,116.503 115.187,116.336 112.5,116.5 Z"/></g>
<g><path style="opacity:1" fill="#7c7d00" d="M 125.5,127.5 C 125.833,127.5 126.167,127.5 126.5,127.5C 126.315,128.17 125.981,128.17 125.5,127.5 Z"/></g>
<g><path style="opacity:1" fill="#000000" d="M 124.5,128.5 C 124.833,128.5 125.167,128.5 125.5,128.5C 125.315,129.17 124.981,129.17 124.5,128.5 Z"/></g>
<g><path style="opacity:1" fill="#7c7d7c" d="M 123.5,129.5 C 123.833,129.5 124.167,129.5 124.5,129.5C 124.315,130.17 123.981,130.17 123.5,129.5 Z"/></g>
<g><path style="opacity:1" fill="#7c7d00" d="M 122.5,130.5 C 122.833,130.5 123.167,130.5 123.5,130.5C 123.315,131.17 122.981,131.17 122.5,130.5 Z"/></g>
<g><path style="opacity:1" fill="#f9fa00" d="M 121.5,131.5 C 121.833,131.5 122.167,131.5 122.5,131.5C 122.315,132.17 121.981,132.17 121.5,131.5 Z"/></g>
<g><path style="opacity:1" fill="#12160b" d="M 78.5,128.5 C 83.5455,137.931 88.5455,147.265 93.5,156.5C 94.1667,156.5 94.5,156.833 94.5,157.5C 94.5,158.5 94.5,159.5 94.5,160.5C 91.4589,159.801 89.7922,157.801 89.5,154.5C 86.5546,149.714 83.3879,145.048 80,140.5C 79.6667,141.167 79.3333,141.833 79,142.5C 77.2962,140.627 75.4628,138.96 73.5,137.5C 71.8333,136.5 70.5,135.167 69.5,133.5C 69.1412,131.629 68.1412,130.129 66.5,129C 67,128.5 67.5,128 68,127.5C 71.038,130.203 73.7046,133.203 76,136.5C 75.2316,133.436 74.3982,130.436 73.5,127.5C 74.8333,126.833 74.8333,126.167 73.5,125.5C 72.8333,125.5 72.5,125.167 72.5,124.5C 71.8333,124.5 71.5,124.167 71.5,123.5C 71.6716,122.508 71.3382,121.842 70.5,121.5C 71.3255,119.452 70.6589,117.785 68.5,116.5C 68.5,115.833 68.5,115.167 68.5,114.5C 67.7822,112.863 67.6155,111.197 68,109.5C 71.0205,116.217 74.5205,122.551 78.5,128.5 Z"/></g>
<g><path style="opacity:1" fill="#277625" d="M 113.5,129.5 C 114.167,130.5 114.833,131.5 115.5,132.5C 112.833,135.5 110.167,138.5 107.5,141.5C 105.904,138.099 106.571,135.099 109.5,132.5C 110.833,131.5 112.167,130.5 113.5,129.5 Z"/></g>
<g><path style="opacity:1" fill="#8b4411" d="M 120.5,131.5 C 120.5,132.167 120.833,132.5 121.5,132.5C 120.92,134.749 119.587,136.415 117.5,137.5C 117.167,136.167 116.833,136.167 116.5,137.5C 115.833,137.5 115.5,137.833 115.5,138.5C 114.833,138.5 114.5,138.833 114.5,139.5C 113.833,139.5 113.5,139.833 113.5,140.5C 112.833,140.5 112.5,140.833 112.5,141.5C 111.833,141.5 111.5,141.833 111.5,142.5C 110.833,142.5 110.5,142.833 110.5,143.5C 110.167,143.5 109.833,143.5 109.5,143.5C 111.388,140.101 113.888,137.101 117,134.5C 117.483,133.552 117.649,132.552 117.5,131.5C 118.5,131.5 119.5,131.5 120.5,131.5 Z"/></g>
<g><path style="opacity:1" fill="#f90000" d="M 116.5,137.5 C 116.833,137.5 117.167,137.5 117.5,137.5C 117.315,138.17 116.981,138.17 116.5,137.5 Z"/></g>
<g><path style="opacity:1" fill="#122c16" d="M 104.5,128.5 C 105.778,128.782 106.778,129.449 107.5,130.5C 107.5,130.833 107.5,131.167 107.5,131.5C 106.356,132.849 106.356,133.183 107.5,132.5C 108.167,132.5 108.833,132.5 109.5,132.5C 106.571,135.099 105.904,138.099 107.5,141.5C 106.524,142.815 105.524,144.148 104.5,145.5C 104.957,146.298 105.624,146.631 106.5,146.5C 106.5,146.833 106.5,147.167 106.5,147.5C 105.833,147.5 105.5,147.833 105.5,148.5C 104.833,148.5 104.5,148.833 104.5,149.5C 103.833,149.5 103.5,149.833 103.5,150.5C 102.833,150.5 102.5,150.833 102.5,151.5C 101.167,151.833 101.167,152.167 102.5,152.5C 102.158,153.338 101.492,153.672 100.5,153.5C 99.9569,153.44 99.6236,153.107 99.5,152.5C 100.97,146.906 102.97,141.573 105.5,136.5C 105.167,135.167 104.833,135.167 104.5,136.5C 101.117,140.6 98.7836,145.266 97.5,150.5C 97.5,150.833 97.5,151.167 97.5,151.5C 97.5,151.833 97.5,152.167 97.5,152.5C 96.596,153.209 96.2627,154.209 96.5,155.5C 95.6618,155.842 95.3284,156.508 95.5,157.5C 95.1667,157.5 94.8333,157.5 94.5,157.5C 94.5,156.833 94.1667,156.5 93.5,156.5C 93.6657,152.154 93.499,147.821 93,143.5C 91.984,144.634 91.3173,144.301 91,142.5C 89.8497,139.232 89.0164,135.899 88.5,132.5C 89.6316,131.646 90.965,131.646 92.5,132.5C 93.3284,137.357 94.1617,142.357 95,147.5C 95.738,144.009 96.5713,140.675 97.5,137.5C 97.81,138.738 98.31,138.738 99,137.5C 100.844,134.472 102.678,131.472 104.5,128.5 Z"/></g>
<g><path style="opacity:1" fill="#f90000" d="M 115.5,138.5 C 115.833,138.5 116.167,138.5 116.5,138.5C 116.315,139.17 115.981,139.17 115.5,138.5 Z"/></g>
<g><path style="opacity:1" fill="#7c0000" d="M 114.5,139.5 C 114.833,139.5 115.167,139.5 115.5,139.5C 115.315,140.17 114.981,140.17 114.5,139.5 Z"/></g>
<g><path style="opacity:1" fill="#7c7d00" d="M 113.5,140.5 C 113.833,140.5 114.167,140.5 114.5,140.5C 114.315,141.17 113.981,141.17 113.5,140.5 Z"/></g>
<g><path style="opacity:1" fill="#1f5421" d="M 87.5,132.5 C 87.8333,132.5 88.1667,132.5 88.5,132.5C 89.0164,135.899 89.8497,139.232 91,142.5C 91.3173,144.301 91.984,144.634 93,143.5C 93.499,147.821 93.6657,152.154 93.5,156.5C 88.5455,147.265 83.5455,137.931 78.5,128.5C 79.2778,127.844 79.9444,127.011 80.5,126C 79.8132,124.838 79.6466,123.672 80,122.5C 82.2999,126.813 84.6333,131.147 87,135.5C 87.4828,134.552 87.6495,133.552 87.5,132.5 Z"/></g>
<g><path style="opacity:1" fill="#161107" d="M 104.5,136.5 C 104.833,136.5 105.167,136.5 105.5,136.5C 102.97,141.573 100.97,146.906 99.5,152.5C 99.6236,153.107 99.9569,153.44 100.5,153.5C 100.631,154.239 100.464,154.906 100,155.5C 99.2303,154.402 98.397,154.402 97.5,155.5C 97.5,154.5 97.5,153.5 97.5,152.5C 97.5,152.167 97.5,151.833 97.5,151.5C 98.8333,151.167 98.8333,150.833 97.5,150.5C 98.7836,145.266 101.117,140.6 104.5,136.5 Z"/></g>
<g><path style="opacity:1" fill="#f97d00" d="M 112.5,141.5 C 112.833,141.5 113.167,141.5 113.5,141.5C 113.315,142.17 112.981,142.17 112.5,141.5 Z"/></g>
<g><path style="opacity:1" fill="#f97d00" d="M 111.5,142.5 C 111.833,142.5 112.167,142.5 112.5,142.5C 112.315,143.17 111.981,143.17 111.5,142.5 Z"/></g>
<g><path style="opacity:1" fill="#f97d00" d="M 110.5,143.5 C 110.833,143.5 111.167,143.5 111.5,143.5C 111.315,144.17 110.981,144.17 110.5,143.5 Z"/></g>
<g><path style="opacity:1" fill="#f97d7c" d="M 109.5,144.5 C 109.833,144.5 110.167,144.5 110.5,144.5C 110.315,145.17 109.981,145.17 109.5,144.5 Z"/></g>
<g><path style="opacity:1" fill="#523a1a" d="M 73.5,137.5 C 75.4628,138.96 77.2962,140.627 79,142.5C 79.3333,141.833 79.6667,141.167 80,140.5C 83.3879,145.048 86.5546,149.714 89.5,154.5C 89.1667,154.5 88.8333,154.5 88.5,154.5C 83.1345,149.136 78.1345,143.469 73.5,137.5 Z"/></g>
<g><path style="opacity:1" fill="#a75150" d="M 108.5,145.5 C 108.833,145.5 109.167,145.5 109.5,145.5C 109.315,146.17 108.981,146.17 108.5,145.5 Z"/></g>
<g><path style="opacity:1" fill="#a75150" d="M 107.5,146.5 C 107.833,146.5 108.167,146.5 108.5,146.5C 108.315,147.17 107.981,147.17 107.5,146.5 Z"/></g>
<g><path style="opacity:1" fill="#a75150" d="M 106.5,147.5 C 106.833,147.5 107.167,147.5 107.5,147.5C 107.315,148.17 106.981,148.17 106.5,147.5 Z"/></g>
<g><path style="opacity:1" fill="#f97d7c" d="M 105.5,148.5 C 105.833,148.5 106.167,148.5 106.5,148.5C 106.315,149.17 105.981,149.17 105.5,148.5 Z"/></g>
<g><path style="opacity:1" fill="#f97d7c" d="M 104.5,149.5 C 104.833,149.5 105.167,149.5 105.5,149.5C 105.315,150.17 104.981,150.17 104.5,149.5 Z"/></g>
<g><path style="opacity:1" fill="#a75150" d="M 103.5,150.5 C 103.833,150.5 104.167,150.5 104.5,150.5C 104.315,151.17 103.981,151.17 103.5,150.5 Z"/></g>
<g><path style="opacity:1" fill="#f9fa7c" d="M 102.5,151.5 C 102.833,151.5 103.167,151.5 103.5,151.5C 103.315,152.17 102.981,152.17 102.5,151.5 Z"/></g>
<g><path style="opacity:1" fill="#b24800" d="M 96.5,155.5 C 96.8333,155.5 97.1667,155.5 97.5,155.5C 97.6716,156.492 97.3382,157.158 96.5,157.5C 96.5,156.833 96.5,156.167 96.5,155.5 Z"/></g>
<g><path style="opacity:1" fill="#f9fa7c" d="M 95.5,157.5 C 95.8333,157.5 96.1667,157.5 96.5,157.5C 96.3147,158.17 95.9813,158.17 95.5,157.5 Z"/></g>
</svg>
